# xmcd CD database file
#
# Track frame offsets:
#	150
#	12803
#	32649
#	45940
#	64068
#	78138
#	93702
#	105755
#	118954
#	133563
#	150969
#
# Disc length: 2222 seconds
#
# Revision: 0
# Processed by: cddbd v1.4PL0 Copyright (c) Steve Scherf et al.
# Submitted via: CDex 1.50
#
DISCID=7508ac0b
DTITLE=Gary Cooley - Bloody Rose
DYEAR=1996
DGENRE=Country
TTITLE0=Look at Me
TTITLE1=You and Me and the Moon
TTITLE2=Fall of the Year
TTITLE3=Where the River Runs Wild
TTITLE4=It's a Long Walk
TTITLE5=Did a Tear Drop from Your Eye?
TTITLE6=I Got a Feelin'
TTITLE7=Four O'Clock in the Morning
TTITLE8=One More I Love You
TTITLE9=The Joker
TTITLE10=Bloody Rose
EXTD=YEAR: 1996
EXTT0=
EXTT1=
EXTT2=
EXTT3=
EXTT4=
EXTT5=
EXTT6=
EXTT7=
EXTT8=
EXTT9=
EXTT10=
PLAYORDER=
